<svg width="230" height="54" viewBox="0 0 230 54" fill="none" xmlns="http://www.w3.org/2000/svg">
<path d="M11.16 40.252C9.408 40.252 7.824 39.952 6.408 39.352C5.016 38.752 3.912 37.888 3.096 36.76C2.28 35.632 1.86 34.3 1.836 32.764H7.236C7.308 33.796 7.668 34.612 8.316 35.212C8.988 35.812 9.9 36.112 11.052 36.112C12.228 36.112 13.152 35.836 13.824 35.284C14.496 34.708 14.832 33.964 14.832 33.052C14.832 32.308 14.604 31.696 14.148 31.216C13.692 30.736 13.116 30.364 12.42 30.1C11.748 29.812 10.812 29.5 9.612 29.164C7.98 28.684 6.648 28.216 5.616 27.76C4.608 27.28 3.732 26.572 2.988 25.636C2.268 24.676 1.908 23.404 1.908 21.82C1.908 20.332 2.28 19.036 3.024 17.932C3.768 16.828 4.812 15.988 6.156 15.412C7.5 14.812 9.036 14.512 10.764 14.512C13.356 14.512 15.456 15.148 17.064 16.42C18.696 17.668 19.596 19.42 19.764 21.676H14.22C14.172 20.812 13.8 20.104 13.104 19.552C12.432 18.976 11.532 18.688 10.404 18.688C9.42 18.688 8.628 18.94 8.028 19.444C7.452 19.948 7.164 20.68 7.164 21.64C7.164 22.312 7.38 22.876 7.812 23.332C8.268 23.764 8.82 24.124 9.468 24.412C10.14 24.676 11.076 24.988 12.276 25.348C13.908 25.828 15.24 26.308 16.272 26.788C17.304 27.268 18.192 27.988 18.936 28.948C19.68 29.908 20.052 31.168 20.052 32.728C20.052 34.072 19.704 35.32 19.008 36.472C18.312 37.624 17.292 38.548 15.948 39.244C14.604 39.916 13.008 40.252 11.16 40.252ZM29.4615 18.94V25.24H37.9215V29.236H29.4615V35.896H39.0015V40H24.4215V14.836H39.0015V18.94H29.4615ZM55.2457 40.252C52.8937 40.252 50.7337 39.7 48.7657 38.596C46.7977 37.492 45.2377 35.968 44.0857 34.024C42.9337 32.056 42.3577 29.836 42.3577 27.364C42.3577 24.916 42.9337 22.72 44.0857 20.776C45.2377 18.808 46.7977 17.272 48.7657 16.168C50.7337 15.064 52.8937 14.512 55.2457 14.512C57.6217 14.512 59.7817 15.064 61.7257 16.168C63.6937 17.272 65.2417 18.808 66.3697 20.776C67.5217 22.72 68.0977 24.916 68.0977 27.364C68.0977 29.836 67.5217 32.056 66.3697 34.024C65.2417 35.968 63.6937 37.492 61.7257 38.596C59.7577 39.7 57.5977 40.252 55.2457 40.252ZM55.2457 35.752C56.7577 35.752 58.0897 35.416 59.2417 34.744C60.3937 34.048 61.2937 33.064 61.9417 31.792C62.5897 30.52 62.9137 29.044 62.9137 27.364C62.9137 25.684 62.5897 24.22 61.9417 22.972C61.2937 21.7 60.3937 20.728 59.2417 20.056C58.0897 19.384 56.7577 19.048 55.2457 19.048C53.7337 19.048 52.3897 19.384 51.2137 20.056C50.0617 20.728 49.1617 21.7 48.5137 22.972C47.8657 24.22 47.5417 25.684 47.5417 27.364C47.5417 29.044 47.8657 30.52 48.5137 31.792C49.1617 33.064 50.0617 34.048 51.2137 34.744C52.3897 35.416 53.7337 35.752 55.2457 35.752ZM87.1833 25.024V29.272H71.9193V25.024H87.1833ZM108.244 35.212H98.2356L96.5796 40H91.2876L100.324 14.836H106.192L115.228 40H109.9L108.244 35.212ZM106.876 31.18L103.24 20.668L99.6036 31.18H106.876ZM161.544 29.596C161.544 30.316 161.496 30.964 161.4 31.54H146.82C146.94 32.98 147.444 34.108 148.332 34.924C149.22 35.74 150.312 36.148 151.608 36.148C153.48 36.148 154.812 35.344 155.604 33.736H161.04C160.464 35.656 159.36 37.24 157.728 38.488C156.096 39.712 154.092 40.324 151.716 40.324C149.796 40.324 148.068 39.904 146.532 39.064C145.02 38.2 143.832 36.988 142.968 35.428C142.128 33.868 141.708 32.068 141.708 30.028C141.708 27.964 142.128 26.152 142.968 24.592C143.808 23.032 144.984 21.832 146.496 20.992C148.008 20.152 149.748 19.732 151.716 19.732C153.612 19.732 155.304 20.14 156.792 20.956C158.304 21.772 159.468 22.936 160.284 24.448C161.124 25.936 161.544 27.652 161.544 29.596ZM156.324 28.156C156.3 26.86 155.832 25.828 154.92 25.06C154.008 24.268 152.892 23.872 151.572 23.872C150.324 23.872 149.268 24.256 148.404 25.024C147.564 25.768 147.048 26.812 146.856 28.156H156.324ZM176.274 19.768C178.65 19.768 180.57 20.524 182.034 22.036C183.498 23.524 184.23 25.612 184.23 28.3V40H179.19V28.984C179.19 27.4 178.794 26.188 178.002 25.348C177.21 24.484 176.13 24.052 174.762 24.052C173.37 24.052 172.266 24.484 171.45 25.348C170.658 26.188 170.262 27.4 170.262 28.984V40H165.222V20.056H170.262V22.54C170.934 21.676 171.786 21.004 172.818 20.524C173.874 20.02 175.026 19.768 176.274 19.768ZM187.727 30.028C187.727 27.964 188.147 26.164 188.987 24.628C189.827 23.068 190.991 21.868 192.479 21.028C193.967 20.164 195.671 19.732 197.591 19.732C200.063 19.732 202.103 20.356 203.711 21.604C205.343 22.828 206.435 24.556 206.987 26.788H201.551C201.263 25.924 200.771 25.252 200.075 24.772C199.403 24.268 198.563 24.016 197.555 24.016C196.115 24.016 194.975 24.544 194.135 25.6C193.295 26.632 192.875 28.108 192.875 30.028C192.875 31.924 193.295 33.4 194.135 34.456C194.975 35.488 196.115 36.004 197.555 36.004C199.595 36.004 200.927 35.092 201.551 33.268H206.987C206.435 35.428 205.343 37.144 203.711 38.416C202.079 39.688 200.039 40.324 197.591 40.324C195.671 40.324 193.967 39.904 192.479 39.064C190.991 38.2 189.827 37 188.987 35.464C188.147 33.904 187.727 32.092 187.727 30.028ZM229.759 20.056L217.411 49.432H212.047L216.367 39.496L208.375 20.056H214.027L219.175 33.988L224.395 20.056H229.759Z" fill="white"/>
<path d="M126.417 19.732C127.905 19.732 129.213 20.032 130.341 20.632C131.469 21.208 132.357 21.964 133.005 22.9V20.056H138.081V40.144C138.081 41.992 137.709 43.636 136.965 45.076C136.221 46.54 135.105 47.692 133.617 48.532C132.129 49.396 130.329 49.828 128.217 49.828C125.385 49.828 123.057 49.168 121.233 47.848C119.433 46.528 118.413 44.728 118.173 42.448H123.177C123.441 43.36 124.005 44.08 124.869 44.608C125.757 45.16 126.825 45.436 128.073 45.436C129.537 45.436 130.725 44.992 131.637 44.104C132.549 43.24 133.005 41.92 133.005 40.144V37.048C132.357 37.984 131.457 38.764 130.305 39.388C129.177 40.012 127.881 40.324 126.417 40.324C124.737 40.324 123.201 39.892 121.809 39.028C120.417 38.164 119.313 36.952 118.497 35.392C117.705 33.808 117.309 31.996 117.309 29.956C117.309 27.94 117.705 26.152 118.497 24.592C119.313 23.032 120.405 21.832 121.773 20.992C123.165 20.152 124.713 19.732 126.417 19.732ZM133.005 30.028C133.005 28.804 132.765 27.76 132.285 26.896C131.805 26.008 131.157 25.336 130.341 24.88C129.525 24.4 128.649 24.16 127.713 24.16C126.777 24.16 125.913 24.388 125.121 24.844C124.329 25.3 123.681 25.972 123.177 26.86C122.697 27.724 122.457 28.756 122.457 29.956C122.457 31.156 122.697 32.212 123.177 33.124C123.681 34.012 124.329 34.696 125.121 35.176C125.937 35.656 126.801 35.896 127.713 35.896C128.649 35.896 129.525 35.668 130.341 35.212C131.157 34.732 131.805 34.06 132.285 33.196C132.765 32.308 133.005 31.252 133.005 30.028Z" fill="#111764"/>
</svg>
